# xmcd
#
# Track frame offsets:
#	150
#	10484
#	24825
#	42930
#	62071
#	80231
#	97224
#	116298
#	132792
#
# Disc length: 2000 seconds
#
# Revision: 1
# Processed by: cddbd v1.5.2PL0 Copyright (c) Steve Scherf et al.
# Submitted via: audiograbber 1.83.01
#
DISCID=7107ce09
DTITLE=Various Artist - ASK1308A
DYEAR=2013
DGENRE=KARAOKE
TTITLE0=ANNA KENDRICK - CUPS
TTITLE1=BRETT ELDREDGE - DON'T YA
TTITLE2=MAROON 5 - LOVE SOMEBODY
TTITLE3=BRANTLEY GILBERT - MORE THAN MILES
TTITLE4=JASON ALDEAN - NIGHT TRAIN
TTITLE5=PARAMORE - STILL INTO YOU
TTITLE6=JIMMYBUFFETT/ TOBY KEITH - TOO DRUNK TO KARAOKE
TTITLE7=BRUNO MARS - WHEN I WAS YOUR MAN
TTITLE8=LITTLE BIG TOWN - YOUR SIDE OF THE BED
EXTD=
EXTT0=
EXTT1=
EXTT2=
EXTT3=
EXTT4=
EXTT5=
EXTT6=
EXTT7=
EXTT8=
PLAYORDER=
